<svg version="1.1" id="Layer_1" xmlns="http://www.w3.org/2000/svg" x="0" y="0" viewBox="0 0 1880 1000" xml:space="preserve"><style>.st0{fill:#fff}.st1{fill:#0bf}.st2{fill:#6527ff}.st3{fill:#4595ff}</style><path class="st0" d="M610.6 465.7l-21.7 68H570l-13.5-30.5-13.2 30.5h-18.9l-22.2-68h24.5l10.3 35.7 16.1-35.5h6.3l17 35.8 10.1-36h24.1zM686.7 499.1c0 2-.2 4.1-.5 6.2h-50.5c1.5 7.8 6.5 11.8 13.9 11.8 5.5 0 10-2.4 12.3-6.4h23.3c-4.8 15.5-18.5 25.2-35.6 25.2-21.2 0-36.9-15.5-36.9-36.3 0-20.8 15.6-36.2 36.9-36.2 21.9.1 37.1 15.8 37.1 35.7zm-50.6-6.8h27.5c-2.1-6.8-7-10.5-14-10.5-6.9.1-11.6 3.8-13.5 10.5zM737.4 463.6c20.9 0 35.7 15 35.7 36.2 0 21.1-14.8 36.2-35.7 36.2-7.9 0-15-2.7-20.5-7.3l-2.2 5h-17.3v-92.6h23.2v27.1c4.7-2.9 10.5-4.6 16.8-4.6zm12.1 36.2c0-8.9-6.4-15.5-15.2-15.5s-15.2 6.6-15.2 15.5c0 8.8 6.4 15.4 15.2 15.4 8.7 0 15.2-6.6 15.2-15.4zM810.1 536c-18.5 0-29.8-9.8-30-24.5h22.5c0 5 3.5 7.3 7.9 7.3 3.4 0 6.7-1.7 6.7-5.3 0-3.9-5.1-5-11.7-6.1-10.5-1.7-24.5-4.9-24.5-21.4 0-13.6 11.6-22.4 29-22.4 17.3 0 28.5 9.2 28.8 23h-21.9c0-4.3-2.9-6.4-7.2-6.4-3.8 0-6.3 1.9-6.3 5 0 3.9 5.2 4.8 11.7 5.9 10.7 1.9 25 4.1 25 21.4 0 14.2-12 23.5-30 23.5zM851.1 465.7h23.4v68h-23.4v-68zm.2-28.3h23.1v19.9h-23.1v-19.9zM935.1 513.2v20.5H919c-15 0-24.2-9.2-24.2-24.3v-25.7h-12.4v-5.5l30.5-32.4h4.8v19.9h17.1v18h-16.5v21.6c0 4.9 2.9 7.8 7.9 7.8h8.9zM1015.5 499.1c0 2-.2 4.1-.5 6.2h-50.5c1.5 7.8 6.5 11.8 13.9 11.8 5.5 0 10-2.4 12.3-6.4h23.3c-4.8 15.5-18.5 25.2-35.6 25.2-21.2 0-36.9-15.5-36.9-36.3 0-20.8 15.6-36.2 36.9-36.2 21.9.1 37.1 15.8 37.1 35.7zm-50.6-6.8h27.5c-2.1-6.8-7-10.5-14-10.5-6.9.1-11.6 3.8-13.5 10.5zM1098 441.2v92.6h-17.3l-2.2-5.1c-5.5 4.7-12.6 7.4-20.5 7.4-20.9 0-35.7-15.2-35.7-36.3 0-21.1 14.9-36.2 35.7-36.2 6.3 0 12 1.7 16.9 4.7v-27.1h23.1zm-21.7 58.6c0-8.9-6.4-15.6-15.2-15.6s-15.2 6.7-15.2 15.6c0 8.9 6.4 15.6 15.2 15.6s15.2-6.8 15.2-15.6zM1182.7 499.1c0 2-.2 4.1-.5 6.2h-50.5c1.5 7.8 6.5 11.8 13.9 11.8 5.5 0 10-2.4 12.3-6.4h23.3c-4.8 15.5-18.5 25.2-35.6 25.2-21.2 0-36.9-15.5-36.9-36.3 0-20.8 15.6-36.2 36.9-36.2 21.9.1 37.1 15.8 37.1 35.7zm-50.6-6.8h27.5c-2.1-6.8-7-10.5-14-10.5-6.8.1-11.6 3.8-13.5 10.5zM1259.4 465.7l-27.3 68h-21.2l-27.7-68h25.7l12.9 40.3 12.7-40.3h24.9zM1290.6 536c-18.5 0-29.8-9.8-30-24.5h22.5c0 5 3.5 7.3 7.9 7.3 3.4 0 6.7-1.7 6.7-5.3 0-3.9-5.1-5-11.7-6.1-10.5-1.7-24.5-4.9-24.5-21.4 0-13.6 11.6-22.4 29-22.4 17.3 0 28.5 9.2 28.8 23h-21.9c0-4.3-2.9-6.4-7.2-6.4-3.8 0-6.3 1.9-6.3 5 0 3.9 5.2 4.8 11.7 5.9 10.7 1.9 25 4.1 25 21.4.1 14.2-11.9 23.5-30 23.5z"/><g><path class="st0" d="M1330.8 512h22.7v21.8h-22.7V512zM1401.1 536c-21.8 0-37.6-15.3-37.6-36.3 0-21 15.7-36 37.6-36 19.1 0 33.4 12 36 30.1h-22.8c-2-5.5-7.2-9.1-13.3-9.1-8.2 0-14.1 6.3-14.1 15.1s5.9 15.3 14.1 15.3c6.3 0 11.4-3.9 13.3-9.9h23c-2.6 18.3-17.1 30.8-36.2 30.8zM1443.5 499.8c0-21.1 16-36.2 38.1-36.2s38.1 15.2 38.1 36.2c0 21-16 36.2-38.1 36.2s-38.1-15.2-38.1-36.2zm38.2 15.1c8.5 0 14.7-6.2 14.7-15.2 0-8.9-6.1-15.2-14.7-15.2s-14.7 6.2-14.7 15.2 6.1 15.2 14.7 15.2zM1634.9 491.1v42.7h-23.4V494c0-7.1-2.6-10.5-7.6-10.5-6.4 0-9.7 4.4-9.7 13v37.3h-22.8V494c0-6.9-2.6-10.5-7.5-10.5-6.3 0-9.8 4.5-9.8 13v37.3h-23.4v-68h16.5l3.3 7.3c4.9-5.7 12-9.3 19.9-9.3 8.3 0 15.3 3.7 19.5 10 4.9-6.2 12.4-10 20.9-10 14.5-.1 24.1 11.3 24.1 27.3z"/></g><path class="st1" d="M324.4 579.9l-80-160 .2-.2h62.1l49 98-31 62.2z"/><path class="st1" d="M244.6 419.8l79.9 160 31-62-48.9-98z"/><path class="st2" d="M386.4 579.9l-31-62 49-98.2h62.1l.2.2-80 160z"/><path class="st2" d="M466.5 419.8h-62l-49 98 31 62z"/><g><path class="st3" d="M355.4 517.9l-49-98 .2-.2H342.9l12.6 25.3 12.7-25.3H404.5l.2.2-49 98z"/><path class="st3" d="M355.5 445.4l-12.8-25.6h-36.1l48.9 98 49-98h-36.2z"/></g></svg>