<?xml version="1.0" encoding="utf-8"?>
<!-- Generator: Adobe Illustrator 24.0.0, SVG Export Plug-In . SVG Version: 6.00 Build 0)  -->
<svg version="1.1" id="Layer_1" xmlns="http://www.w3.org/2000/svg" xmlns:xlink="http://www.w3.org/1999/xlink" x="0px" y="0px"
	 viewBox="0 0 1880 1000" style="enable-background:new 0 0 1880 1000;" xml:space="preserve">
<style type="text/css">
	.st0{fill:#00BBFF;}
	.st1{fill:#6527FF;}
	.st2{fill:#4595FF;}
</style>
<g>
	<path d="M610.6,465.7l-21.7,68H570l-13.5-30.5l-13.2,30.5h-18.9l-22.2-68h24.5l10.3,35.7l16.1-35.5h6.3l17,35.8l10.1-36H610.6z"/>
	<path d="M686.7,499.1c0,2-0.2,4.1-0.5,6.2h-50.5c1.5,7.8,6.5,11.8,13.9,11.8c5.5,0,10-2.4,12.3-6.4h23.3
		c-4.8,15.5-18.5,25.2-35.6,25.2c-21.2,0-36.9-15.5-36.9-36.3c0-20.8,15.6-36.2,36.9-36.2C671.5,463.5,686.7,479.2,686.7,499.1
		L686.7,499.1z M636.1,492.3h27.5c-2.1-6.8-7-10.5-14-10.5C642.7,481.9,638,485.6,636.1,492.3z"/>
	<path d="M737.4,463.6c20.9,0,35.7,15,35.7,36.2c0,21.1-14.8,36.2-35.7,36.2c-7.9,0-15-2.7-20.5-7.3l-2.2,5h-17.3v-92.6h23.2v27.1
		C725.3,465.3,731.1,463.6,737.4,463.6L737.4,463.6z M749.5,499.8c0-8.9-6.4-15.5-15.2-15.5s-15.2,6.6-15.2,15.5
		c0,8.8,6.4,15.4,15.2,15.4C743,515.2,749.5,508.6,749.5,499.8z"/>
	<path d="M810.1,536c-18.5,0-29.8-9.8-30-24.5h22.5c0,5,3.5,7.3,7.9,7.3c3.4,0,6.7-1.7,6.7-5.3c0-3.9-5.1-5-11.7-6.1
		c-10.5-1.7-24.5-4.9-24.5-21.4c0-13.6,11.6-22.4,29-22.4c17.3,0,28.5,9.2,28.8,23h-21.9c0-4.3-2.9-6.4-7.2-6.4
		c-3.8,0-6.3,1.9-6.3,5c0,3.9,5.2,4.8,11.7,5.9c10.7,1.9,25,4.1,25,21.4C840.1,526.7,828.1,536,810.1,536L810.1,536z"/>
	<path d="M851.1,465.7h23.4v68h-23.4V465.7z M851.3,437.4h23.1v19.9h-23.1V437.4z"/>
	<path d="M935.1,513.2v20.5H919c-15,0-24.2-9.2-24.2-24.3v-25.7h-12.4v-5.5l30.5-32.4h4.8v19.9h17.1v18h-16.5v21.6
		c0,4.9,2.9,7.8,7.9,7.8H935.1z"/>
	<path d="M1015.5,499.1c0,2-0.2,4.1-0.5,6.2h-50.5c1.5,7.8,6.5,11.8,13.9,11.8c5.5,0,10-2.4,12.3-6.4h23.3
		c-4.8,15.5-18.5,25.2-35.6,25.2c-21.2,0-36.9-15.5-36.9-36.3c0-20.8,15.6-36.2,36.9-36.2C1000.3,463.5,1015.5,479.2,1015.5,499.1
		L1015.5,499.1z M964.9,492.3h27.5c-2.1-6.8-7-10.5-14-10.5C971.5,481.9,966.8,485.6,964.9,492.3z"/>
</g>
<g>
	<path d="M1098,441.2v92.6h-17.3l-2.2-5.1c-5.5,4.7-12.6,7.4-20.5,7.4c-20.9,0-35.7-15.2-35.7-36.3c0-21.1,14.9-36.2,35.7-36.2
		c6.3,0,12,1.7,16.9,4.7v-27.1H1098z M1076.3,499.8c0-8.9-6.4-15.6-15.2-15.6s-15.2,6.7-15.2,15.6c0,8.9,6.4,15.6,15.2,15.6
		S1076.3,508.6,1076.3,499.8z"/>
	<path d="M1182.7,499.1c0,2-0.2,4.1-0.5,6.2h-50.5c1.5,7.8,6.5,11.8,13.9,11.8c5.5,0,10-2.4,12.3-6.4h23.3
		c-4.8,15.5-18.5,25.2-35.6,25.2c-21.2,0-36.9-15.5-36.9-36.3c0-20.8,15.6-36.2,36.9-36.2C1167.5,463.5,1182.7,479.2,1182.7,499.1
		L1182.7,499.1z M1132.1,492.3h27.5c-2.1-6.8-7-10.5-14-10.5C1138.8,481.9,1134,485.6,1132.1,492.3z"/>
	<path d="M1259.4,465.7l-27.3,68h-21.2l-27.7-68h25.7l12.9,40.3l12.7-40.3H1259.4z"/>
	<path d="M1290.6,536c-18.5,0-29.8-9.8-30-24.5h22.5c0,5,3.5,7.3,7.9,7.3c3.4,0,6.7-1.7,6.7-5.3c0-3.9-5.1-5-11.7-6.1
		c-10.5-1.7-24.5-4.9-24.5-21.4c0-13.6,11.6-22.4,29-22.4c17.3,0,28.5,9.2,28.8,23h-21.9c0-4.3-2.9-6.4-7.2-6.4
		c-3.8,0-6.3,1.9-6.3,5c0,3.9,5.2,4.8,11.7,5.9c10.7,1.9,25,4.1,25,21.4C1320.7,526.7,1308.7,536,1290.6,536L1290.6,536z"/>
</g>
<g>
	<path d="M1330.8,512h22.7v21.8h-22.7V512z"/>
	<path d="M1401.1,536c-21.8,0-37.6-15.3-37.6-36.3c0-21,15.7-36,37.6-36c19.1,0,33.4,12,36,30.1h-22.8c-2-5.5-7.2-9.1-13.3-9.1
		c-8.2,0-14.1,6.3-14.1,15.1s5.9,15.3,14.1,15.3c6.3,0,11.4-3.9,13.3-9.9h23C1434.7,523.5,1420.2,536,1401.1,536L1401.1,536z"/>
	<path d="M1443.5,499.8c0-21.1,16-36.2,38.1-36.2c22.1,0,38.1,15.2,38.1,36.2c0,21-16,36.2-38.1,36.2
		C1459.5,536,1443.5,520.8,1443.5,499.8z M1481.7,514.9c8.5,0,14.7-6.2,14.7-15.2c0-8.9-6.1-15.2-14.7-15.2s-14.7,6.2-14.7,15.2
		C1467,508.7,1473.1,514.9,1481.7,514.9L1481.7,514.9z"/>
	<path d="M1634.9,491.1v42.7h-23.4V494c0-7.1-2.6-10.5-7.6-10.5c-6.4,0-9.7,4.4-9.7,13v37.3h-22.8V494c0-6.9-2.6-10.5-7.5-10.5
		c-6.3,0-9.8,4.5-9.8,13v37.3h-23.4v-68h16.5l3.3,7.3c4.9-5.7,12-9.3,19.9-9.3c8.3,0,15.3,3.7,19.5,10c4.9-6.2,12.4-10,20.9-10
		C1625.3,463.7,1634.9,475.1,1634.9,491.1z"/>
</g>
<polygon class="st0" points="324.4,579.9 244.4,419.9 244.6,419.7 306.6,419.7 306.7,419.7 355.7,517.7 324.7,579.9 "/>
<polygon class="st0" points="244.6,419.8 324.5,579.8 355.5,517.8 306.6,419.8 "/>
<polygon class="st1" points="386.4,579.9 355.4,517.9 404.4,419.7 404.5,419.7 466.5,419.7 466.7,419.9 386.7,579.9 "/>
<polygon class="st1" points="466.5,419.8 404.5,419.8 355.5,517.8 386.5,579.8 "/>
<g>
	<polygon class="st2" points="355.4,517.9 306.4,419.9 306.6,419.7 342.7,419.7 342.9,419.7 355.5,445 368.2,419.7 368.3,419.7 
		404.5,419.7 404.7,419.9 355.7,517.9 	"/>
	<polygon class="st2" points="355.5,445.4 342.7,419.8 306.6,419.8 355.5,517.8 404.5,419.8 368.3,419.8 	"/>
</g>
</svg>
